<?xml version="1.0" encoding="iso-8859-1"?>

<!DOCTYPE svg PUBLIC "-//W3C//DTD SVG 1.1//EN" "http://www.w3.org/Graphics/SVG/1.1/DTD/svg11.dtd">
<!-- Uploaded to: SVG Repo, www.svgrepo.com, Generator: SVG Repo Mixer Tools -->
<svg height="800px" width="800px" version="1.1" id="_x34_" xmlns="http://www.w3.org/2000/svg" xmlns:xlink="http://www.w3.org/1999/xlink" 
	 viewBox="0 0 512 512"  xml:space="preserve">
<g>
	<path style="fill:none;" d="M473.932,230.623c15.079-3.946,35.452-10.645,38.068-18.531
		C509.382,219.974,489.011,226.672,473.932,230.623z"/>
	<path style="fill:none;" d="M381.723,232.43c-1.145,4.959-2.455,9.779-3.885,14.468c1.478-4.694,2.827-9.514,4.018-14.467
		c0.105-0.465,0.21-0.915,0.315-1.381h-0.141C381.927,231.509,381.828,231.972,381.723,232.43z"/>
	<path style="fill:none;" d="M469.005,230.623c15.079-3.946,35.452-10.645,38.068-18.531
		C504.456,219.974,484.084,226.672,469.005,230.623z"/>
	<g>
		<g>
			<path style="fill:#595A59;" d="M295.42,79.633c0.059,4.613-1.951,9.933-8.69,15.253c-1.301,1.005-2.72,1.892-4.316,2.601h-0.059
				c-0.769,0.414-1.537,0.769-2.424,1.006c-8.159,2.956-18.978,2.778-29.796,1.656c-3.429-0.355-6.858-0.769-10.169-1.241
				c-8.513-1.184-16.494-2.484-22.525-2.662c-2.897-0.118-5.38,0-7.212,0.533c-5.557,1.596-11.765-7.745-17.204-19.214
				c-0.414-0.888-0.828-1.774-1.241-2.719c-7.094-15.904-12.474-34.526-12.474-34.526S163.584-22.82,192.73,8.926
				c9.814,10.642,22.938,20.81,36.417,29.502c14.366,9.281,29.087,16.967,40.497,21.874
				C278.275,66.745,286.789,73.249,295.42,79.633z"/>
			<path style="fill:#44949D;" d="M212.594,67.47c0,0-0.296,10.997-1.064,24.712c-1.182,21.933-3.547,50.903-7.626,53.326
				c-4.729,2.838-67.574,13.894-115.579,4.139c-3.666-0.769-7.213-1.596-10.642-2.662c-3.665-1.005-7.212-2.246-10.523-3.605
				c-9.105-3.725-16.967-8.692-22.702-15.194c-0.236-0.237-0.473-0.533-0.709-0.769c-2.778-3.25-5.38-6.384-7.804-9.399
				c-2.365-3.015-4.611-5.853-6.681-8.631c-16.908-22.525-22.465-36.3-24.18-41.62c0.946-0.768,1.951-1.478,3.015-1.951
				c3.902,0.828,10.701,2.601,19.45,4.671c3.547,0.828,7.449,1.833,11.587,2.956c21.697,5.912,37.556,13.051,72.658,13.051
				c33.624,0,50.902-8.676,66.332-11.336c0.828-0.118,1.656-0.296,2.424-0.414c2.306-0.414,4.493-0.827,6.562-1.241
				C203.43,70.366,212.594,67.47,212.594,67.47z"/>
			<path style="fill:#414D4F;" d="M385.873,210.406H0V76.086c0-4.256,4.434-13.775,16.199-12.533
				c0.473,0.058,0.946,0.118,1.419,0.235c7.39,1.3,16.317,7.036,27.432,13.716c18.563,11.114,43.098,24.83,76.559,24.83
				c24.83,0,47.178-10.818,64.854-23.529c1.833-1.3,3.606-2.601,5.321-3.961c19.687-15.253,32.575-31.748,35.117-34.585
				c0.651-0.768,1.419-1.36,2.247-1.832c3.193-1.951,7.39-1.951,10.642,0.294c10.109,6.859,19.982,14.19,29.855,21.579
				c8.631,6.443,17.144,12.947,25.776,19.331c1.951,1.42,3.902,2.898,5.853,4.258C308.19,89.033,315.166,94,322.26,98.789
				c9.932,6.739,20.042,13.065,30.447,18.681c3.665,2.011,7.39,3.901,11.174,5.734c8.336,4.021,16.908,7.508,25.776,10.464
				C390.544,156.786,389.775,184.216,385.873,210.406z"/>
			<polygon style="fill:#FFFCF3;" points="332.784,231.039 3.488,231.039 1.951,221.756 31.51,222.526 159.031,226.133 			"/>
			<path style="fill:#EDEDEC;" d="M377.655,247.533c-1.655,5.379-3.488,10.523-5.557,15.431H8.927l-1.36-7.982l-1.242-7.449H377.655
				z"/>
			<path style="fill:#EDEDEC;" d="M385.873,210.406c-1.064,7.035-2.306,13.953-3.843,20.633h-49.247l-173.753-4.906L31.51,222.526
				l-29.56-0.769L0,210.406H385.873z"/>
			<path style="fill:#B4AB6F;" d="M381.735,232.457c-0.591,2.601-1.241,5.144-1.891,7.627c-0.651,2.307-1.301,4.552-2.01,6.798
				c-0.059,0.237-0.118,0.414-0.178,0.651H6.325l-0.473-2.601l-1.36-8.278l-1.005-5.616h329.296L381.735,232.457z"/>
			<path style="fill:#B4AB6F;" d="M332.805,231.049l48.918,1.379c0.105-0.457,0.204-0.92,0.307-1.379H332.805z"/>
			<path style="fill:#FFFCF3;" d="M385.873,210.406c3.902-26.19,4.671-53.62,3.784-76.737c17.44,5.794,36.004,9.223,56.164,9.223
				c10.996,0,20.101,2.601,27.668,6.798c0.059,0,0.118,0.059,0.178,0.118c9.637,5.32,16.672,13.302,21.756,21.757
				c9.104,15.252,11.942,32.102,11.942,38.84H385.873z"/>
			<path style="fill:#DDDDDE;" d="M507.358,210.41v52.536H372.099c2.056-4.878,3.902-10.027,5.554-15.386h128.204v-16.511H467.37
				C483.596,226.906,507.358,219.311,507.358,210.41z"/>
			<path style="fill:#DDDDDE;" d="M382.03,231.049h85.342c16.226-4.149,39.986-11.742,39.986-20.639H385.853
				C384.81,217.418,383.542,224.33,382.03,231.049z"/>
			<path style="fill:#B4AB6F;" d="M507.358,231.049v16.511H377.653c1.561-4.893,2.957-9.952,4.203-15.131
				c0.105-0.465,0.21-0.915,0.315-1.381H507.358z"/>
			<g>
				<circle style="fill:#DBEFF3;" cx="246.927" cy="83.572" r="16.887"/>
				<circle style="fill:#616161;" cx="246.927" cy="83.572" r="11.073"/>
			</g>
			<g>
				<circle style="fill:#DBEFF3;" cx="287.455" cy="113.593" r="16.887"/>
				<circle style="fill:#616161;" cx="287.455" cy="113.593" r="11.073"/>
			</g>
			<g>
				<circle style="fill:#DBEFF3;" cx="333.987" cy="139.111" r="16.887"/>
				<circle style="fill:#616161;" cx="333.988" cy="139.111" r="11.073"/>
			</g>
			<g>
				<circle style="fill:#DBEFF3;" cx="114.085" cy="189.395" r="11.633"/>
				<circle style="fill:#616161;" cx="114.085" cy="189.395" r="7.628"/>
			</g>
			<g>
				<g>
					<circle style="fill:#A3BBC1;" cx="55.889" cy="146.517" r="39.027"/>
					<circle style="fill:#ECF6F7;" cx="55.889" cy="146.517" r="28.145"/>
				</g>
				<polygon style="opacity:0.3;fill:#A3BBC1;" points="55.889,115.393 63.118,137.641 86.51,137.641 67.585,151.391 
					74.814,173.639 55.889,159.889 36.963,173.639 44.192,151.391 25.267,137.641 48.66,137.641 				"/>
			</g>
		</g>
		<path style="opacity:0.1;fill:#040000;" d="M495.422,171.565c-5.084-8.455-12.119-16.437-21.756-21.757
			c-0.059-0.059-0.118-0.118-0.178-0.118c-7.567-4.197-16.672-6.798-27.668-6.798c-20.16,0-38.723-3.429-56.164-9.223
			c-8.868-2.956-17.44-6.443-25.776-10.464c-3.784-1.833-7.508-3.724-11.174-5.734c-10.405-5.616-20.514-11.942-30.447-18.681
			c-7.094-4.789-14.07-9.756-20.987-14.898L122.2,262.964h385.164v-52.558C507.364,203.667,504.526,186.817,495.422,171.565z
			 M381.735,232.457c0.118-0.473,0.178-0.945,0.296-1.419h0.118c-0.059,0.473-0.177,0.945-0.296,1.419
			c-0.591,2.543-1.301,5.085-2.01,7.627c-0.651,2.307-1.301,4.552-2.01,6.798C379.252,242.212,380.553,237.365,381.735,232.457z"/>
	</g>
</g>
</svg>